Coordinates
version=1
nRows=23
nColumns=33
inDegrees=yes

Units are S.I. units (second, meters, Newtons, ...)
Angles are in degrees.

endheader
time	ground_thorax_rot_x	ground_thorax_rot_y	ground_thorax_rot_z	ground_thorax_tx	ground_thorax_ty	ground_thorax_tz	clav_prot_r	clav_elev_r	scapula_abduction_r	scapula_elevation_r	scapula_upward_rot_r	scapula_winging_r	shoulder_elv_r	plane_of_elev_r	axial_rot_r	elbow_flexion_r	pro_sup_r	wrist_flex_r	wrist_dev_r	clav_prot_l	clav_elev_l	scapula_abduction_l	scapula_elevation_l	scapula_upward_rot_l	scapula_winging_l	shoulder_elv_l	plane_of_elev_l	axial_rot_l	elbow_flexion_l	pro_sup_l	wrist_flex_l	wrist_dev_l	
5.1600	-0.254332	0.905795	13.320977	-0.120449	1.030973	0.009500	10.674122	-9.484922	18.410148	-2.214312	-0.463783	-4.324046	-58.382716	-71.975037	81.028821	-55.160650	-140.054469	42.747213	-24.988026	7.932221	-1.416331	-8.841230	-21.065996	-36.238845	-2.941265	55.020121	-39.032797	1.688691	55.316826	21.628794	-3.570429	-25.000000	
5.1700	-0.506065	1.132461	13.220119	-0.120286	1.031011	0.009510	10.180252	-9.618208	17.560926	-2.331251	-0.482975	-3.927735	-58.153241	-72.170813	81.609918	-55.333248	-140.180585	44.602336	-24.971057	8.164185	-0.911401	-9.182146	-21.508811	-36.133602	-2.852727	54.855949	-38.696746	1.469032	55.574221	21.380384	-3.753668	-25.000000	
5.1800	-0.765648	1.378258	13.132508	-0.120076	1.031010	0.009542	9.651035	-9.748776	16.648401	-2.443592	-0.507901	-3.506465	-57.890253	-72.358468	82.190625	-55.501502	-140.268016	46.572846	-24.949859	8.400830	-0.383810	-9.526540	-21.968108	-36.015803	-2.763813	54.693540	-38.332619	1.238372	55.807670	21.167393	-3.946074	-25.000000	
5.1900	-0.907131	1.520282	13.109903	-0.120013	1.031038	0.009594	9.344103	-9.829760	16.098068	-2.494134	-0.568522	-3.249953	-57.758368	-72.505927	82.567783	-55.812063	-140.117050	47.850235	-24.914377	8.565851	-0.091167	-9.784687	-22.234797	-35.979282	-2.692559	54.608458	-38.190842	0.998775	56.138685	21.237214	-4.082475	-25.000000	
5.2000	-0.988448	1.610347	13.120571	-0.120015	1.031051	0.009670	9.149027	-9.888005	15.731990	-2.517304	-0.643125	-3.076667	-57.684969	-72.625695	82.833790	-56.209818	-139.809831	48.781963	-24.870999	8.694307	0.076704	-9.998334	-22.395574	-35.978659	-2.628890	54.574589	-38.154571	0.748694	56.515100	21.494176	-4.191318	-25.000000	
5.2100	-1.022769	1.656513	13.150751	-0.120074	1.031082	0.009762	9.048882	-9.939227	15.530176	-2.535297	-0.713355	-2.973018	-57.654818	-72.712462	83.007983	-56.654669	-139.390867	49.400835	-24.826301	8.789138	0.136024	-10.168523	-22.460704	-36.001603	-2.572117	54.587082	-38.183838	0.498749	56.899855	21.903120	-4.273245	-25.000000	
5.2200	-1.037303	1.678063	13.180814	-0.120153	1.031085	0.009862	8.997194	-9.987889	15.422010	-2.560496	-0.760239	-2.909296	-57.647430	-72.773053	83.143909	-57.124842	-138.966671	49.836356	-24.792474	8.864865	0.150356	-10.309675	-22.482573	-36.026309	-2.521207	54.625076	-38.217831	0.252354	57.277995	22.356350	-4.335949	-25.000000	
5.2300	-1.056845	1.699660	13.202209	-0.120221	1.031081	0.009962	8.946504	-10.053893	15.327620	-2.611999	-0.782340	-2.845419	-57.620312	-72.814512	83.280298	-57.565391	-138.575308	50.227681	-24.774467	8.934690	0.161588	-10.438026	-22.495625	-36.038403	-2.472478	54.681043	-38.204140	0.007934	57.610811	22.830121	-4.391057	-25.000000	
5.2400	-1.078363	1.715715	13.218289	-0.120276	1.031059	0.010055	8.903235	-10.128311	15.258461	-2.682334	-0.777930	-2.789404	-57.581580	-72.835239	83.416876	-57.969338	-138.270709	50.531845	-24.778510	8.992782	0.172890	-10.543286	-22.505328	-36.042040	-2.431471	54.748724	-38.147432	-0.222179	57.899618	23.275847	-4.434086	-25.000000	
5.2500	-1.106126	1.737103	13.234590	-0.120303	1.031032	0.010146	8.851310	-10.224041	15.172563	-2.769863	-0.779364	-2.718140	-57.487986	-72.842634	83.558558	-58.331761	-137.987904	50.793400	-24.807084	9.039534	0.182128	-10.629047	-22.515948	-36.050433	-2.398870	54.856961	-38.051302	-0.457749	58.150937	23.826962	-4.476458	-25.000000	
5.2600	-1.135059	1.761585	13.261752	-0.120298	1.030964	0.010238	8.790926	-10.327542	15.064770	-2.857609	-0.797577	-2.634323	-57.347695	-72.845349	83.696766	-58.663256	-137.721384	51.027788	-24.851094	9.076977	0.190006	-10.699547	-22.529484	-36.066712	-2.373777	54.994894	-37.938006	-0.695828	58.375009	24.453256	-4.521083	-25.000000	
5.2700	-1.162857	1.792199	13.290566	-0.120277	1.030854	0.010336	8.719078	-10.444981	14.924106	-2.945595	-0.845869	-2.530808	-57.151743	-72.856653	83.830142	-58.981270	-137.423850	51.284045	-24.898628	9.116086	0.189424	-10.775693	-22.538125	-36.090707	-2.346464	55.161914	-37.813724	-0.957315	58.567983	25.181122	-4.575238	-25.000000	
5.2800	-1.181423	1.816365	13.319586	-0.120248	1.030706	0.010434	8.652358	-10.557877	14.790450	-3.027865	-0.897824	-2.431650	-56.946514	-72.871232	83.943234	-59.270506	-137.169087	51.515866	-24.939040	9.154797	0.177325	-10.852046	-22.533804	-36.111780	-2.316773	55.317575	-37.687657	-1.207278	58.704511	25.834709	-4.629579	-25.000000	
5.2900	-1.187445	1.835322	13.331912	-0.120227	1.030504	0.010538	8.592685	-10.666378	14.663563	-3.101259	-0.961193	-2.336580	-56.729395	-72.894464	84.043211	-59.567042	-136.962195	51.735186	-24.972176	9.199849	0.154203	-10.940839	-22.516791	-36.130182	-2.279633	55.464523	-37.554238	-1.470582	58.786943	26.408889	-4.687968	-25.000000	
5.3000	-1.177675	1.842319	13.339060	-0.120209	1.030255	0.010640	8.548176	-10.754628	14.563015	-3.156896	-1.022466	-2.260034	-56.535639	-72.923328	84.120845	-59.847683	-136.854750	51.909534	-24.991320	9.246567	0.120997	-11.032828	-22.486653	-36.142522	-2.238333	55.576453	-37.427637	-1.714951	58.808323	26.778003	-4.746894	-25.000000	
5.3100	-1.153791	1.846044	13.332684	-0.120197	1.029962	0.010751	8.506332	-10.835006	14.455481	-3.194701	-1.109106	-2.183228	-56.332091	-72.970566	84.197494	-60.148673	-136.835705	52.071933	-24.999999	9.300326	0.076351	-11.140331	-22.447583	-36.161016	-2.189813	55.678289	-37.300872	-1.972460	58.777523	26.993588	-4.826504	-25.000000	
5.3200	-1.126426	1.850107	13.329010	-0.120162	1.029658	0.010861	8.453840	-10.912115	14.316375	-3.217181	-1.225661	-2.094370	-56.111848	-73.037449	84.284034	-60.433494	-136.897053	52.222923	-24.999999	9.352128	0.023754	-11.248420	-22.408157	-36.195111	-2.142645	55.780463	-37.185485	-2.210648	58.714758	27.076297	-4.938648	-25.000000	
5.3300	-1.113082	1.880807	13.315956	-0.120080	1.029386	0.010981	8.333778	-11.041704	14.015670	-3.243745	-1.449484	-1.917581	-55.744717	-73.167240	84.459093	-60.751152	-137.013752	52.451607	-24.999998	9.408092	-0.044843	-11.378293	-22.381647	-36.290221	-2.095276	55.967448	-37.058626	-2.481479	58.645449	27.191225	-5.164900	-25.000000	
5.3400	-1.119106	1.929484	13.304215	-0.119941	1.029161	0.011093	8.157250	-11.208665	13.588809	-3.276167	-1.742973	-1.674136	-55.277570	-73.344581	84.708837	-61.062898	-137.177922	52.724702	-24.999997	9.460291	-0.120498	-11.511850	-22.371452	-36.433597	-2.054349	56.215686	-36.933812	-2.738841	58.595135	27.317906	-5.481515	-24.999999	
5.3500	-1.138796	1.991462	13.282353	-0.119771	1.028959	0.011209	7.938204	-11.398505	13.068290	-3.309468	-2.085641	-1.383513	-54.736225	-73.562789	85.029095	-61.416475	-137.390727	53.034197	-24.999995	9.515703	-0.200341	-11.658787	-22.373901	-36.612542	-2.013900	56.510581	-36.807470	-2.994015	58.576403	27.448221	-5.871493	-24.999999	
5.3600	-1.163076	2.042770	13.261918	-0.119587	1.028759	0.011314	7.731719	-11.556917	12.586998	-3.331262	-2.386416	-1.122491	-54.251479	-73.767465	85.344142	-61.767607	-137.615753	53.301996	-24.999991	9.566800	-0.268498	-11.793700	-22.382230	-36.778616	-1.977737	56.778908	-36.701611	-3.191810	58.607916	27.541138	-6.240979	-24.999999	
5.3700	-1.180318	2.084846	13.233409	-0.119411	1.028535	0.011424	7.542896	-11.674038	12.153272	-3.332306	-2.645353	-0.898549	-53.818382	-73.960910	85.656393	-62.173832	-137.877257	53.525601	-24.999983	9.622128	-0.331896	-11.933244	-22.389452	-36.933060	-1.938083	57.016421	-36.608314	-3.350472	58.699251	27.585752	-6.592712	-24.999998	
5.3800	-1.180086	2.101206	13.210352	-0.119256	1.028295	0.011526	7.413153	-11.715429	11.863510	-3.305740	-2.802155	-0.765161	-53.523273	-74.103982	85.904069	-62.587412	-138.151608	53.645718	-24.999970	9.675883	-0.385129	-12.059797	-22.386273	-37.044121	-1.897147	57.169911	-36.539958	-3.433367	58.850272	27.551866	-6.859117	-24.999996	
